<?xml version="1.0" encoding="UTF-8"?>
<svg id="Layer_1" data-name="Layer 1" xmlns="http://www.w3.org/2000/svg" viewBox="0 0 841.89 595.28">
  <defs>
    <style>
      .cls-1 {
        fill: #fff;
      }
    </style>
  </defs>
  <path class="cls-1" d="M550.42,367.88c-1.42,11.57-9.58,19.45-20.3,22.67-1.61.47-4.08.76-7.3.76h-190.76c-3.89,0-6.74.19-8.73.57-18.78,3.79-30.45,23.14-24.95,41.55,3.79,12.43,13.75,20.96,26.65,23.14.09,0,.19.09.19.19v12.81s-.09.28-.28.28h0c-20.11-1.52-36.43-15.18-41.07-35-.76-3.32-1.14-9.2-1.04-17.74V151.32c0-6.36.28-11.1.95-14.23,3.6-17.17,17.17-30.64,34.34-34.34,3.04-.66,7.68-.95,14.13-.95h177.19c6.17,0,10.72.28,13.56.95,16.98,3.6,30.73,17.07,34.34,34.24.66,3.13,1.04,8.25,1.04,15.46v264.56c.09,8.35-.19,14.13-.95,17.55-3.79,17.17-16.98,30.35-34.24,34.34-3.23.76-9.2,1.04-17.74.95h-114.02c-.09,0-.19,0-.19.19v22.67s-.09.28-.28.28h-.19l-19.83-22.77s-.28-.09-.38,0h0l-22.96,22.96h-.19v-.19s-.19-.09-.19-.19v-68.49s.19-.38.38-.38h43.16s.38.19.38.38v32.25s.09.28.28.28h122.93c4.17,0,7.21-.19,9.11-.66,13.66-3.13,21.82-16.32,26.28-29.22.57-1.71.85-3.13.85-4.27v-54.92s0-.09-.09-.09h-.19l.1.19ZM424.07,345.39h25.71c.19,0,.38-.19.38-.38v-98.56s.09-.28.28-.28h43.92s.19,0,.19-.19h0v-48.38s0-.19-.19-.19h-44.01s-.19,0-.19-.19v-36.42s-.09-.19-.19-.19h-51.79c-.09,0-.19.09-.19.19v36.42s0,.19-.19.19h-44.01s-.19,0-.19.19h0v48.38s0,.19.19.19h43.92s.28.09.28.28v98.56s.19.38.38.38h25.71Z"/>
</svg>