<?xml version="1.0" encoding="UTF-8"?>
<svg id="Layer_1" data-name="Layer 1" xmlns="http://www.w3.org/2000/svg" viewBox="0 0 841.89 595.28">
  <defs>
    <style>
      .cls-1 {
        fill: #fff;
      }
    </style>
  </defs>
  <path class="cls-1" d="M561.63,451.13h-289.34c-.58,0-.93-1.39-.93-2.08.58-86.92,78.12-157.52,165.04-145.36,72.22,10.07,125.46,75.11,125.23,147.45h0Z"/>
  <path class="cls-1" d="M718.68,449.4h-139.46l-.93-1.5c-.23-34.84-12.27-69.09-32.64-96.99-3.59-4.86-8.45-9.49-11.57-14.12-.35-.46-.81-.58-.58-1.5,32.87-20.02,72.68-23.73,108.33-8.33,47.57,20.6,76.85,71.06,76.85,122.33v.12Z"/>
  <path class="cls-1" d="M408.63,146.75c48.03-2.89,81.13,43.75,73.38,88.89-10.3,59.95-82.17,83.79-122.8,35.99-38.08-44.79-11.34-121.17,49.42-124.88Z"/>
  <path class="cls-1" d="M123.22,451.13c-.69-53.82,33.1-107.52,84.49-125.46,31.25-10.88,65.04-7.87,94.09,7.75-2.89,3.93-6.48,7.29-9.49,11.11-24.07,30.09-37.73,67.7-37.61,106.59H123.22Z"/>
  <path class="cls-1" d="M236.64,181.35c49.65-4.63,77.89,50.92,60.76,93.51-20.72,51.5-87.15,52.89-109.02,1.62-16.32-38.08,4.05-90.97,48.38-95.13h-.12Z"/>
  <path class="cls-1" d="M585.93,179.62c52.43-5.09,80.44,55.9,58.56,99.18-26.04,51.39-94.56,41.78-109.6-12.61-10.07-36.57,10.3-82.64,51.04-86.57Z"/>
</svg>