<?xml version="1.0" encoding="UTF-8"?>
<svg id="Layer_1" data-name="Layer 1" xmlns="http://www.w3.org/2000/svg" viewBox="0 0 841.89 595.28">
  <defs>
    <style>
      .cls-1 {
        fill: #fff;
      }
    </style>
  </defs>
  <path class="cls-1" d="M671.21,341.51c-3.13,42.15-38.66,77-81.23,79.48H251.22c-42.56-2.59-78.09-37.44-81.22-79.48h501.21Z"/>
  <path class="cls-1" d="M604.87,428.01v18.58c0,2.98-5.6,8.93-8.81,9.41-116.09,1.19-232.31.12-348.4.48-4.17.48-11.43-6.07-11.43-9.88v-18.58h368.65Z"/>
  <g>
    <path class="cls-1" d="M384.25,301.76c7.62-14.41,8.57-32.15,3.69-47.63-1.55-4.76-4.17-9.29-5.72-14.05-5.24-15.72-3.93-33.58,7.14-46.44-2.26,8.57-4.64,17.15-4.05,26.2,1.07,16.55,11.19,28.94,12.15,45.25.6,10.84-2.5,25.12-9.41,33.7-.48.6-3.1,3.69-3.81,3.1v-.12Z"/>
    <path class="cls-1" d="M411.64,245.92c7.5-14.29,8.57-31.32,3.81-46.68-2.26-7.26-5.95-13.57-7.62-21.31-2.98-13.93-.48-29.17,8.93-40.13-2.62,9.29-4.76,17.86-4.05,27.62,1.07,13.69,8.45,23.22,10.95,35.84,2.74,13.93.71,30.13-8.22,41.56-.6.72-2.74,3.93-3.81,3.1h0Z"/>
    <path class="cls-1" d="M454.27,192.09s-3.1,10-3.45,12.03c-3.45,18.58,1.79,26.31,7.5,42.51,5.72,16.19,5.12,35.24-4.88,49.53-.48.6-3.57,4.76-4.29,4.05,6.55-14.17,8.34-28.94,4.29-44.18-2.26-8.45-7.03-16.07-8.69-24.89-2.26-12.38,0-28.22,8.1-38.22.24-.24.6-1.91,1.31-.95l.12.12Z"/>
  </g>
</svg>