<?xml version="1.0" encoding="UTF-8"?>
<svg id="Layer_1" data-name="Layer 1" xmlns="http://www.w3.org/2000/svg" viewBox="0 0 841.89 595.28">
  <defs>
    <style>
      .cls-1 {
        fill: #fff;
      }
    </style>
  </defs>
  <path class="cls-1" d="M420.61,389.88h25.71c.19,0,.38-.19.38-.38v-98.56s.09-.28.28-.28h43.92s.19,0,.19-.19h0v-48.38s0-.19-.19-.19h-44.01s-.19,0-.19-.19v-36.42s-.09-.19-.19-.19h-51.79c-.09,0-.19.09-.19.19v36.42s0,.19-.19.19h-44.01s-.19,0-.19.19h0v48.38s0,.19.19.19h43.92s.28.09.28.28v98.56s.19.38.38.38h25.71Z"/>
</svg>